<svg width="128" height="128" xmlns="http://www.w3.org/2000/svg">

 <title/>
 <g>
  <title>background</title>
  <rect fill="none" id="canvas_background" height="402" width="582" y="-1" x="-1"/>
 </g>
 <g>
  <title>Layer 1</title>
  <path fill="#ecf0f1" id="svg_1" d="m37.68,18.18a14,14 0 0 0 -6.32,22.41a36,36 0 0 1 0,46.82a14,14 0 0 0 6.64,22.5a48,48 0 0 0 62,-46c0,-31.68 -31.08,-55.51 -62.32,-45.73z" class="cls-1"/>
  <path fill="#f7f7f7" id="svg_2" d="m85.51,65a10.26,10.26 0 1 1 -10.25,-10.26a10.26,10.26 0 0 1 10.25,10.26zm-28.58,-37.22a10.26,10.26 0 1 0 10.26,10.22a10.26,10.26 0 0 0 -10.26,-10.22zm0,53.93a10.26,10.26 0 1 0 10.26,10.29a10.26,10.26 0 0 0 -10.26,-10.29z" class="cls-2"/>
  <path fill="#f7f7f7" id="svg_3" d="m38.11,18.91a48,48 0 0 1 55.49,21.25a48,48 0 0 0 -55.91,-22a14,14 0 0 0 -7.57,20.71a14,14 0 0 1 7.99,-19.96z" class="cls-2"/>
  <path fill="#f7f7f7" id="svg_4" d="m31.79,88.13a36,36 0 0 0 3.45,-42a36,36 0 0 1 -3.88,41.32a13.91,13.91 0 0 0 -1.18,16.55a13.89,13.89 0 0 1 1.61,-15.87z" class="cls-2"/>
  <path fill="#bdc3c7" id="svg_5" d="m84.46,28.75c32.92,35.62 -2.18,92.8 -49.2,78.43a14.15,14.15 0 0 1 -4.42,-2.25a14,14 0 0 0 7.15,5c49.07,14.98 83.61,-46.93 46.47,-81.18z" class="cls-3"/>
  <circle fill="#e74c3c" id="svg_6" r="10.26" cy="64" cx="74.26" class="cls-4"/>
  <circle fill="#f1c40f" id="svg_7" r="10.26" cy="37.04" cx="55.93" class="cls-5"/>
  <circle fill="#3498db" id="svg_8" r="10.26" cy="90.96" cx="55.93" class="cls-6"/>
  <path fill="#f39c12" id="svg_9" d="m49.21,44.76a10.25,10.25 0 0 1 14.45,-14.45a10.25,10.25 0 1 0 -14.45,14.45z" class="cls-7"/>
  <path fill="#c0392b" id="svg_10" d="m67.53,71.73a10.25,10.25 0 0 1 14.47,-14.46a10.25,10.25 0 1 0 -14.47,14.46z" class="cls-8"/>
  <path fill="#2980b9" id="svg_11" d="m46.68,92a10.26,10.26 0 0 1 17,-7.73a10.25,10.25 0 1 0 -14.47,14.42a10.21,10.21 0 0 1 -2.53,-6.69z" class="cls-9"/>
 </g>
</svg>